<?xml version="1.0"?>
<svg xmlns="http://www.w3.org/2000/svg" xmlns:xlink="http://www.w3.org/1999/xlink" version="1.1" id="Capa_1" x="0px" y="0px" viewBox="0 0 512 512" style="enable-background:new 0 0 512 512;" xml:space="preserve" width="512px" height="512px"><g><g>
	<g>
		<g>
			<path d="M245.333,42.667h-42.667c-5.888,0-10.667,4.779-10.667,10.667S196.779,64,202.667,64h42.667     C251.221,64,256,59.221,256,53.333S251.221,42.667,245.333,42.667z" data-original="#000000" class="active-path" data-old_color="#000000" fill="#2A6896"/>
			<path d="M437.333,277.333c-5.888,0-10.667,4.779-10.667,10.667v-21.333c0-16.747-5.739-32.043-15.083-44.501l11.947-11.947     c4.16-4.16,4.16-10.923,0-15.083c-4.16-4.16-10.923-4.16-15.083,0l-11.947,11.947C384.043,197.739,368.747,192,352,192     c-16.747,0-32.064,5.739-44.523,15.083l-11.947-11.947c-4.16-4.16-10.923-4.16-15.083,0s-4.16,10.923,0,15.083l11.947,11.947     c-9.323,12.459-15.061,27.776-15.061,44.501V288c0-5.888-4.779-10.667-10.667-10.667S256,282.112,256,288v85.333     c0,5.888,4.779,10.667,10.667,10.667s10.667-4.779,10.667-10.667c0,13.888,8.939,25.621,21.333,30.037v33.963     c0,5.888,4.779,10.667,10.667,10.667S320,443.221,320,437.333v-32h64v32c0,5.888,4.779,10.667,10.667,10.667     s10.667-4.779,10.667-10.667v-33.963c12.395-4.416,21.333-16.149,21.333-30.037c0,5.888,4.779,10.667,10.667,10.667     c5.888,0,10.667-4.779,10.667-10.667V288C448,282.112,443.221,277.333,437.333,277.333z M352,213.333     c25.771,0,47.296,18.368,52.245,42.667H299.733C304.704,231.701,326.229,213.333,352,213.333z M405.333,373.333     c0,5.888-4.8,10.667-10.667,10.667h-85.333c-5.867,0-10.667-4.779-10.667-10.667v-96h106.667V373.333z" data-original="#000000" class="active-path" data-old_color="#000000" fill="#2A6896"/>
			<path d="M370.155,468.459c-4.373-3.925-11.115-3.52-15.061,0.896c-18.944,21.312-71.232,21.312-88.427,21.312h-85.333     c-65.493,0-96-13.568-96-42.667h181.333c5.888,0,10.667-4.779,10.667-10.667c0-5.888-4.779-10.667-10.667-10.667H85.333v-320     h277.333v55.659c0,5.888,4.779,10.667,10.667,10.667c5.888,0,10.667-4.779,10.667-10.667V74.667C384,23.083,325.056,0,266.667,0     h-85.333C122.944,0,64,23.083,64,74.667V448c0,64,88.32,64,117.333,64h85.333c33.941,0,81.664-2.944,104.384-28.48     C374.976,479.125,374.571,472.384,370.155,468.459z M85.333,74.667c0-42.112,60.352-53.333,96-53.333h85.333     c35.648,0,96,11.221,96,53.333v10.667H85.333V74.667z" data-original="#000000" class="active-path" data-old_color="#000000" fill="#2A6896"/>
		</g>
	</g>
</g></g> </svg>
